{"title":"James Bond - 007 - A View To A Kill","uid":5596463,"size":676370337,"categoryP":"video","categoryS":"movies","magnet":"?xt=urn:btih:1da9fb1f3d2ebcc8c843ad04511cd4d59ea4f4dc&amp;dn=James+Bond+-+007+-+A+View+To+A+Kill&amp;tr=udp%3A%2F%2Ftracker.openbittorrent.com%3A80&amp;tr=udp%3A%2F%2Fopen.demonii.com%3A1337&amp;tr=udp%3A%2F%2Ftracker.coppersurfer.tk%3A6969&amp;tr=udp%3A%2F%2Fexodus.desync.com%3A6969","seeders":0,"leechers":0,"uploader":"hiest","files":2,"time":1275008058,"description":"007 returns from the USSR with a new computer chip; one that is invulnerable to the magnetic pulse of a nuclear explosion. The chip is being manufactured by Zorin Industries, headed up by a sociopathic businessman named Max Zorin who is planning to corner the world microchip market by using explosives to cause an earthquake in the San Andreas fault that will wipe out Silicon Valley - and the millions who live and work there! Bond must face not only Zorin himself, but the equally twisted May Day and Scarpine, another one of Zorin's henchmen. Assisted by San Francisco City employee Stacy, Bond goes after the would-be computer magnate in a series of frightening confrontations - including fire in the SF City Hall, a wild chase through the city with Stacy at the wheel of a fire department ladder truck, and finally in a hand-to-hand fight atop San Francisco's Golden Gate Bridge. \n\n\nFormat : AVI\nFormat/Info : Audio Video Interleave\nFile size : 645 MiB\nDuration : 2h 5mn\nOverall bit rate : 717 Kbps\nWriting application : MEncoder SVN-r29352(20090610-gcc4.3.3)\nWriting library : MPlayer\n\nVideo\nFormat : avc1\nCodec ID : avc1\nDuration : 2h 5mn\nBit rate : 577 Kbps\nWidth : 480 pixels\nHeight : 360 pixels\nDisplay aspect ratio : 4:3\nFrame rate : 25.000 fps\nBits/(Pixel*Frame) : 0.134\nStream size : 519 MiB (80%)\n\nAudio\nID : 1\nFormat : MPEG Audio\nFormat version : Version 1\nFormat profile : Layer 3\nMode : Joint stereo\nFormat_Settings_ModeExtension : MS Stereo\nCodec ID : 55\nCodec ID/Hint : MP3\nDuration : 2h 5mn\nBit rate mode : Constant\nBit rate : 128 Kbps\nChannel(s) : 2 channels\nSampling rate : 44.1 KHz\nStream size : 115 MiB (18%)\nAlignment : Aligned on interleaves\nInterleave, duration : 26 ms (0.65 video frame)\nInterleave, preload duration : 522 ms\nWriting library : LAME3.98","torrent":{"xt":"urn:btih:1da9fb1f3d2ebcc8c843ad04511cd4d59ea4f4dc","amp;dn":"James+Bond+-+007+-+A+View+To+A+Kill","amp;tr":["udp%3A%2F%2Ftracker.openbittorrent.com%3A80","udp%3A%2F%2Fopen.demonii.com%3A1337","udp%3A%2F%2Ftracker.coppersurfer.tk%3A6969","udp%3A%2F%2Fexodus.desync.com%3A6969"],"infoHash":"1da9fb1f3d2ebcc8c843ad04511cd4d59ea4f4dc","infoHashBuffer":{"type":"Buffer","data":[29,169,251,31,61,46,188,200,200,67,173,4,81,28,212,213,158,164,244,220]},"announce":[],"urlList":[]}}